<?xml version="1.0" standalone="no"?>
<!DOCTYPE svg PUBLIC "-//W3C//DTD SVG 20010904//EN"
 "http://www.w3.org/TR/2001/REC-SVG-20010904/DTD/svg10.dtd">
<svg version="1.0" xmlns="http://www.w3.org/2000/svg"
 width="512.000000pt" height="512.000000pt" viewBox="0 0 512.000000 512.000000"
 preserveAspectRatio="xMidYMid meet">

<g transform="translate(0.000000,512.000000) scale(0.100000,-0.100000)"
fill="#000000" stroke="none">
<path d="M392 4567 l-163 -164 3 -630 3 -629 27 -41 c53 -81 32 -78 653 -78
615 0 585 -3 642 72 l28 36 3 734 c2 716 2 734 -18 772 -11 22 -34 50 -52 63
l-33 23 -465 3 -465 3 -163 -164z m1036 -689 l-3 -693 -515 0 -515 0 -3 580
-2 580 112 112 113 113 407 0 408 0 -2 -692z"/>
<path d="M625 4245 c-33 -33 -32 -70 4 -106 l29 -29 247 0 c296 0 315 5 315
89 0 16 -10 37 -23 49 -23 21 -30 22 -286 22 l-262 0 -24 -25z"/>
<path d="M625 3895 c-27 -26 -32 -70 -12 -96 27 -36 52 -39 295 -39 227 0 241
1 266 21 37 29 37 89 0 118 -25 20 -39 21 -276 21 l-249 0 -24 -25z"/>
<path d="M644 3559 c-47 -23 -56 -87 -19 -124 24 -25 26 -25 208 -25 179 0
184 1 205 23 27 29 28 77 3 108 -19 23 -23 24 -198 26 -110 1 -186 -2 -199 -8z"/>
<path d="M2733 4714 c-46 -23 -100 -86 -112 -131 -7 -24 -11 -221 -11 -555 l0
-517 -47 -6 c-423 -54 -773 -295 -961 -662 -63 -124 -109 -267 -124 -388 l-12
-95 -521 0 c-306 0 -534 -4 -555 -10 -47 -13 -106 -63 -133 -113 -21 -39 -22
-55 -22 -237 0 -184 1 -198 23 -242 l24 -48 -24 -47 c-22 -45 -23 -59 -23
-238 0 -179 1 -193 23 -237 l24 -48 -24 -47 c-22 -45 -23 -59 -23 -243 0 -182
1 -198 22 -237 27 -50 86 -100 133 -113 21 -6 344 -10 830 -10 887 0 836 -4
907 70 58 60 65 93 61 311 -3 184 -4 196 -27 232 -20 33 -22 41 -10 52 12 12
28 9 109 -22 146 -55 261 -75 425 -76 267 -1 508 73 712 220 41 29 76 53 78
53 2 0 6 -168 7 -372 3 -418 1 -403 79 -447 36 -21 49 -21 626 -21 l590 0 34
23 c18 12 44 38 56 56 l23 34 0 420 c0 570 27 529 -360 537 l-254 5 -8 43
c-10 58 -42 108 -91 140 -39 26 -46 27 -199 30 -144 3 -159 5 -153 20 31 77
66 206 80 292 23 133 16 345 -14 468 -12 46 -21 85 -21 87 0 2 195 5 433 7
481 3 474 2 535 73 18 20 38 48 43 62 5 14 9 384 9 904 0 771 -2 884 -15 917
-21 49 -52 81 -100 103 -38 18 -88 19 -1025 19 -882 0 -988 -2 -1017 -16z
m1985 -156 c8 -8 12 -57 12 -155 l0 -143 -977 2 -978 3 -3 133 c-1 80 2 140 8
152 11 20 23 20 968 20 732 0 961 -3 970 -12z m10 -1095 l-3 -638 -463 -3
-463 -2 -17 31 c-187 347 -523 587 -902 645 -52 7 -98 14 -102 14 -5 0 -8 133
-8 295 l0 295 980 0 980 0 -2 -637z m-1881 -124 c43 -6 125 -26 183 -45 349
-115 611 -400 703 -763 18 -71 21 -115 22 -251 0 -149 -3 -175 -28 -265 -101
-371 -377 -654 -741 -759 -254 -74 -519 -50 -761 69 -128 63 -216 127 -308
224 -445 472 -370 1230 158 1603 225 160 495 225 772 187z m-1377 -1170 c0
-49 38 -222 65 -298 14 -37 25 -71 25 -75 0 -3 -252 -6 -559 -6 -535 0 -560 1
-582 19 -23 18 -24 25 -27 178 -3 149 -2 160 18 186 l21 27 520 0 519 0 0 -31z
m219 -594 c22 -31 41 -58 41 -60 0 -3 -33 -5 -74 -5 -83 0 -132 -14 -146 -40
-16 -31 -11 -79 10 -100 18 -18 33 -20 140 -20 l119 0 22 29 22 30 76 -62 c42
-35 87 -70 101 -80 24 -18 25 -18 6 -32 -17 -13 -133 -15 -792 -15 -745 0
-773 1 -795 19 -23 18 -24 25 -27 178 -3 149 -2 160 18 186 l21 27 608 0 608
0 42 -55z m2412 25 c4 -8 11 -31 14 -51 8 -51 43 -98 90 -123 37 -19 60 -21
283 -24 l242 -4 0 -59 0 -59 -545 0 -545 0 0 110 0 110 40 52 c22 29 40 56 40
61 0 4 84 6 186 5 154 -3 188 -6 195 -18z m629 -715 l0 -235 -545 0 -545 0 0
235 0 235 545 0 545 0 0 -235z m-2723 153 c22 -21 23 -27 23 -183 0 -129 -3
-165 -16 -183 l-15 -22 -784 0 -784 0 -21 27 c-20 26 -21 37 -18 186 3 153 4
160 27 178 22 18 50 19 794 19 l771 0 23 -22z"/>
<path d="M3015 3865 c-16 -15 -25 -36 -25 -55 0 -19 9 -40 25 -55 l24 -25 713
0 c545 1 717 4 729 13 44 34 47 89 7 127 -21 20 -32 20 -735 20 l-714 0 -24
-25z"/>
<path d="M3527 3548 c-27 -22 -39 -66 -25 -96 25 -52 28 -52 516 -50 l454 3
24 28 c31 36 31 71 -1 102 l-24 25 -464 0 c-355 0 -467 -3 -480 -12z"/>
<path d="M3943 3230 c-34 -14 -56 -54 -48 -90 13 -58 23 -60 313 -60 l263 0
24 25 c33 33 32 70 -4 106 l-29 29 -249 -1 c-136 0 -258 -4 -270 -9z"/>
<path d="M2549 3171 c-13 -10 -33 -44 -45 -76 l-21 -58 -84 -37 -84 -36 -67
28 c-62 26 -70 27 -100 15 -47 -20 -188 -171 -188 -201 0 -13 11 -49 25 -81
l25 -57 -34 -86 -35 -86 -55 -21 c-94 -35 -96 -38 -96 -187 0 -71 4 -138 10
-148 5 -10 41 -30 79 -45 57 -21 70 -31 76 -53 3 -15 18 -53 32 -84 l25 -57
-26 -57 c-41 -89 -38 -95 67 -201 106 -105 112 -108 201 -67 l57 26 70 -31
c38 -17 75 -31 83 -31 7 0 25 -32 40 -70 16 -39 36 -75 46 -80 10 -6 75 -10
143 -10 147 0 155 4 190 93 l22 58 86 35 87 34 53 -25 c88 -40 99 -37 200 63
102 101 108 119 65 213 l-25 52 23 46 c13 25 29 63 35 83 11 33 19 40 72 59
90 33 99 49 99 185 0 63 -5 124 -11 138 -12 25 -40 42 -110 66 -33 12 -39 20
-70 100 l-35 87 28 59 c19 39 26 68 23 84 -4 14 -45 64 -93 113 -99 99 -116
104 -207 63 l-49 -22 -76 33 c-41 18 -79 33 -85 33 -5 0 -21 30 -35 67 -32 87
-44 93 -191 93 -99 0 -120 -3 -140 -19z m209 -201 c25 -62 44 -80 107 -94 17
-4 69 -25 117 -48 l87 -41 62 27 63 27 30 -30 30 -30 -18 -38 c-36 -75 -37
-87 -3 -155 17 -35 43 -97 57 -138 l25 -75 63 -24 63 -25 -3 -44 c-3 -43 -4
-45 -54 -63 -64 -24 -78 -39 -99 -114 -9 -33 -30 -84 -46 -112 -34 -62 -36
-95 -9 -159 l21 -48 -30 -30 -31 -30 -45 22 c-60 29 -95 28 -158 -7 -28 -16
-82 -38 -118 -50 -76 -25 -89 -37 -114 -103 -17 -47 -18 -48 -62 -48 -37 0
-46 4 -50 21 -3 11 -15 39 -27 62 -19 38 -27 44 -96 68 -41 14 -98 37 -127 52
-63 33 -89 34 -148 5 l-45 -22 -32 32 -32 32 22 45 c29 59 28 92 -4 149 -14
25 -38 81 -52 123 -25 72 -30 80 -69 99 -23 12 -51 24 -62 27 -17 4 -21 13
-21 50 0 44 1 45 48 62 66 25 78 38 102 114 12 36 35 90 51 118 35 63 36 88 7
154 l-21 51 29 29 30 29 62 -26 62 -27 88 41 c48 22 106 46 129 53 51 14 74
39 97 102 17 46 19 47 59 47 l42 0 23 -60z"/>
<path d="M2586 2710 c-63 -16 -152 -69 -206 -123 -206 -205 -146 -565 114
-692 221 -108 473 -29 583 183 123 232 16 520 -227 613 -63 24 -202 34 -264
19z m229 -178 c136 -70 195 -239 129 -370 -49 -98 -143 -156 -254 -155 -79 0
-125 19 -184 73 -63 59 -89 116 -89 201 0 118 72 225 177 263 57 22 169 15
221 -12z"/>
<path d="M564 2070 c-28 -11 -54 -48 -54 -78 0 -66 108 -99 149 -46 12 15 21
39 21 54 0 49 -68 90 -116 70z"/>
<path d="M824 2070 c-28 -11 -54 -48 -54 -76 0 -12 9 -33 21 -48 42 -54 149
-19 149 48 0 52 -68 96 -116 76z"/>
<path d="M1074 2066 c-78 -35 -49 -146 38 -146 51 0 82 28 82 74 0 63 -59 99
-120 72z"/>
<path d="M531 1474 c-44 -56 -8 -126 64 -126 72 0 108 70 64 126 -16 21 -29
26 -64 26 -35 0 -48 -5 -64 -26z"/>
<path d="M791 1474 c-44 -56 -8 -126 64 -126 72 0 108 70 64 126 -16 21 -29
26 -64 26 -35 0 -48 -5 -64 -26z"/>
<path d="M1050 1478 c-23 -25 -26 -74 -6 -101 51 -67 170 -12 150 69 -14 54
-104 75 -144 32z"/>
<path d="M531 904 c-27 -35 -26 -67 3 -100 31 -37 84 -38 121 -4 31 29 32 68
4 104 -16 21 -29 26 -64 26 -35 0 -48 -5 -64 -26z"/>
<path d="M791 904 c-27 -35 -26 -67 3 -100 47 -56 146 -20 146 52 0 67 -107
102 -149 48z"/>
<path d="M1052 907 c-41 -43 -25 -108 31 -126 61 -21 111 14 111 76 0 68 -94
101 -142 50z"/>
<path d="M1520 910 c-26 -26 -27 -83 -1 -109 26 -26 73 -34 172 -29 74 3 83 6
105 31 31 36 31 71 -1 102 -23 24 -30 25 -140 25 -102 0 -117 -2 -135 -20z"/>
<path d="M2310 4135 c-160 -33 -332 -95 -484 -173 -104 -53 -131 -72 -143 -98
-13 -27 -13 -35 -2 -60 8 -16 27 -35 43 -43 27 -13 35 -10 170 58 165 83 303
131 476 165 97 19 129 29 142 46 32 40 19 93 -29 118 -28 16 -38 15 -173 -13z"/>
<path d="M926 2918 c-48 -42 -130 -392 -104 -441 27 -51 80 -62 122 -24 21 18
28 40 42 122 9 55 27 137 40 183 34 118 32 142 -17 167 -38 20 -54 19 -83 -7z"/>
<path d="M4465 2561 c-40 -17 -47 -37 -46 -128 1 -48 4 -96 7 -108 8 -33 -14
-290 -35 -392 -24 -127 -9 -163 70 -163 58 0 73 34 106 245 9 61 15 166 15
270 0 167 -10 242 -35 263 -19 16 -60 22 -82 13z"/>
<path d="M3160 614 c-47 -13 -123 -31 -170 -40 -117 -21 -373 -29 -485 -15
-49 7 -111 14 -137 18 -41 5 -49 2 -72 -20 -31 -31 -34 -75 -8 -107 26 -32
131 -49 342 -56 203 -7 346 8 536 56 143 36 168 52 172 107 3 34 -1 44 -24 62
-33 26 -47 25 -154 -5z"/>
</g>
</svg>
