<?xml version="1.0" standalone="no"?>
<!DOCTYPE svg PUBLIC "-//W3C//DTD SVG 20010904//EN"
 "http://www.w3.org/TR/2001/REC-SVG-20010904/DTD/svg10.dtd">
<svg version="1.0" xmlns="http://www.w3.org/2000/svg"
 width="512.000000pt" height="512.000000pt" viewBox="0 0 512.000000 512.000000"
 preserveAspectRatio="xMidYMid meet">

<g transform="translate(0.000000,512.000000) scale(0.100000,-0.100000)"
fill="#000000" stroke="none">
<path d="M1583 4945 c-29 -8 -72 -24 -94 -36 -53 -27 -131 -104 -158 -157 -51
-101 -51 -94 -51 -1015 l0 -860 -47 7 c-100 13 -196 85 -244 181 -20 41 -24
65 -24 135 0 107 24 161 109 243 52 49 60 62 60 93 0 43 -31 74 -74 74 -57 0
-159 -100 -210 -205 -138 -283 41 -624 355 -676 l75 -13 0 -238 0 -238 -34 0
c-39 0 -36 -5 -62 115 -9 44 -25 89 -35 101 -10 11 -45 28 -78 38 -32 10 -89
33 -127 52 -37 19 -81 34 -96 34 -17 0 -61 -21 -112 -54 l-83 -54 -51 50 -50
51 54 83 c32 50 54 95 54 112 0 15 -18 62 -39 105 -22 43 -45 100 -51 127 -16
68 -39 84 -153 110 l-97 22 0 68 0 68 98 22 c113 26 136 42 152 110 6 27 29
84 51 127 21 43 39 90 39 105 0 16 -22 62 -54 111 l-54 84 50 50 51 51 83 -54
c50 -32 95 -54 112 -54 15 0 62 18 105 39 43 22 100 45 127 51 71 17 84 37
114 178 34 158 33 185 0 211 -64 50 -113 13 -138 -105 -32 -146 -25 -134 -91
-159 -33 -12 -72 -28 -86 -35 -25 -11 -33 -8 -105 38 -101 64 -127 76 -156 69
-13 -4 -74 -57 -136 -120 -89 -91 -112 -120 -112 -142 0 -18 23 -64 61 -122
l61 -95 -25 -56 c-13 -31 -30 -71 -36 -88 -12 -30 -17 -32 -119 -55 -155 -34
-152 -29 -152 -227 0 -202 -5 -194 149 -230 l113 -27 23 -60 c12 -33 28 -72
35 -87 12 -26 10 -32 -38 -105 -64 -98 -76 -126 -69 -155 9 -35 229 -248 256
-248 27 0 60 17 152 77 66 42 73 44 98 33 14 -7 53 -23 86 -35 66 -25 59 -13
91 -159 24 -112 40 -126 143 -126 l80 0 3 -802 3 -803 23 -58 c44 -108 121
-184 233 -230 l54 -22 930 -3 c989 -3 1005 -3 1098 45 60 30 138 106 166 161
51 101 51 94 51 1015 l0 860 46 -7 c103 -14 196 -83 245 -181 20 -41 24 -65
24 -135 0 -106 -24 -161 -106 -240 -66 -64 -76 -87 -54 -129 33 -64 95 -53
180 32 190 191 191 483 1 673 -74 74 -161 118 -261 135 l-75 13 0 238 0 238
34 0 c39 0 36 5 62 -115 9 -44 25 -89 35 -101 10 -11 45 -28 78 -38 32 -10 89
-33 127 -52 37 -19 81 -34 96 -34 17 0 61 21 112 54 l83 54 51 -50 50 -51 -54
-83 c-33 -51 -54 -95 -54 -112 0 -15 15 -59 34 -96 19 -38 42 -95 52 -127 10
-33 27 -68 38 -78 12 -10 57 -26 101 -35 126 -27 115 -18 115 -96 0 -78 11
-69 -115 -96 -44 -9 -89 -25 -101 -35 -11 -10 -28 -45 -38 -78 -10 -32 -33
-89 -52 -127 -19 -37 -34 -80 -34 -96 0 -16 22 -61 54 -111 l54 -84 -50 -50
-51 -51 -83 54 c-51 33 -95 54 -112 54 -15 0 -59 -15 -96 -34 -38 -19 -95 -42
-127 -52 -33 -10 -68 -27 -78 -38 -12 -13 -29 -67 -45 -144 -34 -158 -33 -185
0 -211 64 -50 113 -13 138 105 32 146 25 134 91 159 33 12 72 28 87 35 26 12
32 10 105 -38 98 -64 126 -76 155 -69 13 4 74 57 136 120 89 91 112 120 112
142 0 18 -23 64 -61 123 -57 88 -60 96 -49 120 7 15 23 54 35 87 l22 59 114
27 c154 36 149 29 149 229 0 200 5 193 -149 229 l-114 27 -22 59 c-12 33 -28
72 -35 87 -12 26 -10 32 32 96 59 88 78 126 78 153 0 27 -213 247 -248 256
-29 7 -57 -5 -155 -69 -73 -48 -79 -50 -105 -38 -15 7 -54 23 -87 35 -66 25
-59 13 -91 159 -24 112 -40 126 -144 126 l-80 0 0 778 c0 834 0 834 -51 934
-47 92 -158 174 -267 197 -37 8 -327 11 -970 10 -757 0 -926 -3 -969 -14z
m1932 -156 c54 -15 139 -100 154 -154 16 -57 16 -4093 0 -4150 -15 -54 -100
-139 -154 -154 -55 -15 -1854 -15 -1908 0 -54 15 -142 102 -156 154 -15 57
-15 4094 0 4149 14 51 92 132 144 151 33 12 192 14 960 15 641 0 932 -3 960
-11z"/>
<path d="M2283 4628 c-32 -16 -48 -61 -34 -97 20 -47 42 -51 311 -51 164 0
258 4 274 11 55 26 55 112 0 138 -33 15 -520 14 -551 -1z"/>
<path d="M2115 2941 c-51 -32 -343 -334 -350 -362 -4 -17 -1 -38 8 -55 21 -40
337 -350 365 -359 54 -16 113 43 97 97 -4 13 -69 85 -143 161 l-136 137 136
138 c74 75 139 147 143 160 9 32 -11 77 -41 91 -34 15 -44 14 -79 -8z"/>
<path d="M2603 2948 c-31 -15 -41 -45 -128 -395 -68 -277 -76 -316 -65 -342
27 -67 116 -62 143 7 8 21 49 178 92 349 68 275 76 317 66 342 -12 27 -48 52
-74 50 -7 0 -22 -5 -34 -11z"/>
<path d="M2923 2948 c-27 -13 -47 -60 -38 -90 4 -13 69 -85 143 -160 l136
-138 -136 -137 c-74 -76 -139 -148 -143 -161 -16 -54 43 -113 97 -97 28 9 344
319 365 359 9 17 12 38 8 55 -7 29 -313 344 -357 367 -31 16 -45 17 -75 2z"/>
<path d="M4204 4308 c-45 -21 -57 -89 -23 -132 16 -20 29 -26 59 -26 30 0 43
6 59 26 35 44 22 111 -26 133 -29 13 -41 13 -69 -1z"/>
<path d="M4204 3988 c-45 -21 -57 -89 -23 -132 16 -20 29 -26 59 -26 30 0 43
6 59 26 35 44 22 111 -26 133 -29 13 -41 13 -69 -1z"/>
<path d="M4204 3668 c-45 -21 -57 -89 -23 -132 16 -20 29 -26 59 -26 30 0 43
6 59 26 35 44 22 111 -26 133 -29 13 -41 13 -69 -1z"/>
<path d="M821 1584 c-36 -46 -21 -113 30 -135 78 -32 142 66 88 135 -16 20
-29 26 -59 26 -30 0 -43 -6 -59 -26z"/>
<path d="M821 1264 c-36 -46 -21 -113 30 -135 78 -32 142 66 88 135 -16 20
-29 26 -59 26 -30 0 -43 -6 -59 -26z"/>
<path d="M821 944 c-36 -46 -21 -113 30 -135 78 -32 142 66 88 135 -29 37 -89
37 -118 0z"/>
</g>
</svg>
