<?xml version="1.0" standalone="no"?>
<!DOCTYPE svg PUBLIC "-//W3C//DTD SVG 20010904//EN"
 "http://www.w3.org/TR/2001/REC-SVG-20010904/DTD/svg10.dtd">
<svg version="1.0" xmlns="http://www.w3.org/2000/svg"
 width="512.000000pt" height="512.000000pt" viewBox="0 0 512.000000 512.000000"
 preserveAspectRatio="xMidYMid meet">

<g transform="translate(0.000000,512.000000) scale(0.100000,-0.100000)"
fill="#000000" stroke="none">
<path d="M2617 5111 c-35 -5 -76 -20 -105 -38 -68 -42 -97 -105 -117 -258 -18
-137 -27 -165 -52 -165 -10 1 -65 36 -123 80 -130 98 -160 113 -230 113 -82 0
-129 -29 -266 -167 -138 -137 -164 -179 -164 -261 0 -75 14 -105 109 -231 45
-59 81 -116 81 -126 0 -24 -24 -32 -140 -47 -187 -25 -240 -48 -287 -128 -35
-61 -51 -221 -36 -371 11 -114 24 -150 70 -196 43 -44 97 -63 228 -81 135 -18
165 -27 165 -51 0 -8 -25 -51 -57 -94 l-56 -79 -561 -3 -561 -3 -47 -28 c-53
-31 -94 -79 -114 -134 -11 -31 -13 -230 -14 -1047 l0 -1009 -155 -207 c-85
-113 -161 -226 -170 -250 -31 -89 -9 -187 60 -255 81 -82 -106 -76 2145 -73
l2005 3 41 22 c48 25 101 83 120 129 18 43 18 145 1 187 -8 18 -82 123 -165
234 l-151 202 -3 1018 c-3 955 -4 1020 -21 1058 -25 55 -73 103 -132 131 -49
24 -53 24 -385 24 l-336 0 -17 29 c-19 33 -67 56 -99 48 -13 -3 -61 -20 -108
-37 -81 -29 -91 -31 -205 -27 -145 5 -212 26 -322 99 -121 82 -211 207 -249
350 -18 70 -18 219 1 293 55 216 230 391 441 441 111 26 246 16 364 -25 92
-33 96 -33 133 -18 59 25 67 56 67 261 0 136 -6 213 -25 343 -14 92 -30 181
-35 197 -18 52 -61 98 -117 123 -49 23 -70 26 -201 29 -81 1 -173 -1 -205 -5z
m354 -178 c29 -29 69 -297 69 -467 0 -118 -1 -128 -17 -121 -69 26 -156 37
-273 33 -107 -4 -137 -9 -213 -35 -253 -89 -433 -285 -498 -544 -18 -69 -20
-103 -17 -208 8 -202 63 -338 196 -482 107 -116 233 -192 379 -229 122 -32
323 -24 426 15 16 7 17 -3 17 -116 0 -147 -41 -444 -64 -467 -41 -41 -351 -42
-391 -1 -9 8 -25 88 -41 201 l-28 188 -50 16 c-28 9 -73 28 -99 41 -26 13 -53
20 -60 16 -7 -4 -73 -52 -147 -108 -74 -56 -143 -104 -153 -108 -24 -9 -49 5
-120 66 -89 78 -167 174 -167 206 0 19 33 72 110 177 61 82 108 153 105 159
-2 5 -21 51 -41 101 l-37 91 -186 26 c-154 22 -189 30 -203 47 -35 43 -35 337
0 380 14 17 48 25 197 47 99 14 185 30 191 34 6 5 16 28 24 51 7 24 23 65 37
92 l25 48 -33 47 c-18 25 -68 93 -111 150 -54 72 -78 113 -78 132 0 45 166
225 247 267 29 16 43 9 153 -73 52 -39 118 -87 146 -108 l51 -37 74 34 c41 19
86 37 100 41 25 6 26 11 53 193 16 113 32 193 41 201 23 23 83 30 228 27 122
-3 141 -6 158 -23z m-1411 -2118 c0 -20 7 -51 14 -70 l15 -35 -475 0 -474 0 0
-865 0 -865 1560 0 1560 0 0 865 0 865 -280 0 -280 0 0 70 0 70 323 0 c360 0
358 0 377 -68 6 -24 10 -365 10 -989 l0 -953 -1705 0 -1705 0 0 976 0 976 29
29 29 29 501 0 501 0 0 -35z m810 -247 c5 -13 16 -77 25 -143 24 -175 57 -234
155 -279 40 -18 65 -20 230 -21 184 0 185 0 243 29 62 30 111 84 122 137 4 16
14 80 23 142 l17 112 208 3 207 2 0 -705 0 -705 -1400 0 -1400 0 0 705 0 705
466 0 466 0 66 -59 c87 -76 121 -93 192 -93 70 0 103 16 235 116 55 41 108 76
118 76 9 0 22 -10 27 -22z m1723 -2085 c150 -200 162 -224 141 -278 -18 -47
71 -45 -2039 -45 l-1977 0 -29 29 c-52 53 -46 68 121 291 l150 200 1743 0
1742 0 148 -197z"/>
<path d="M1650 440 c-26 -26 -26 -80 -1 -111 l19 -24 532 0 532 0 24 28 c31
36 31 71 -1 102 l-24 25 -531 0 c-517 0 -531 -1 -550 -20z"/>
<path d="M4812 4719 c-72 -14 -158 -82 -182 -144 -8 -21 -16 -23 -102 -27
-139 -6 -155 -17 -399 -280 -112 -121 -216 -226 -231 -234 -22 -11 -110 -14
-470 -14 -420 0 -446 1 -496 20 -162 62 -341 21 -467 -105 -143 -143 -173
-346 -78 -527 99 -189 332 -282 534 -213 39 13 113 15 512 13 l468 -3 107
-110 c59 -61 168 -173 242 -249 152 -157 181 -175 296 -183 74 -6 75 -6 94
-42 61 -119 219 -167 341 -103 228 119 159 458 -97 480 -103 9 -216 -57 -253
-145 -12 -30 -17 -33 -56 -33 -23 0 -55 5 -72 10 -18 7 -115 101 -258 250
-165 173 -241 246 -274 262 -45 23 -54 23 -428 26 -211 2 -383 5 -383 8 0 3
10 24 22 47 11 23 26 62 33 87 l11 45 385 -3 c211 -1 525 -5 697 -8 l313 -6 9
-24 c17 -43 90 -112 138 -131 56 -21 143 -22 193 -1 129 55 193 210 139 336
-59 137 -221 198 -350 132 -41 -21 -106 -89 -120 -126 l-10 -25 -427 6 c-841
11 -974 15 -980 34 -3 9 -16 39 -28 68 l-23 52 381 3 382 3 50 28 c35 19 111
94 259 253 116 124 221 230 234 235 13 5 52 9 86 9 58 0 64 -2 75 -26 22 -50
61 -91 113 -120 69 -38 170 -41 234 -7 94 50 151 150 141 251 -14 157 -151
261 -305 231z m123 -191 c59 -70 -4 -173 -94 -153 -41 9 -71 49 -71 94 0 47
22 78 63 89 46 12 74 4 102 -30z m-2064 -635 c78 -25 162 -109 183 -182 32
-108 12 -200 -59 -279 -60 -67 -128 -96 -220 -96 -111 1 -201 58 -252 161 -66
136 -10 307 122 375 81 42 142 48 226 21z m2034 -188 c55 -27 71 -92 34 -139
-30 -38 -64 -49 -105 -36 -42 14 -64 44 -64 88 0 43 14 68 48 86 35 19 47 19
87 1z m6 -875 c24 -13 49 -61 49 -95 0 -16 -12 -38 -29 -56 -40 -39 -97 -41
-135 -3 -75 76 21 204 115 154z"/>
</g>
</svg>
